<?xml version="1.0" encoding="UTF-8"?>
<svg version="1.1" xmlns="http://www.w3.org/2000/svg" width="79" height="80">
<path d="M0 0 C26.07 0 52.14 0 79 0 C79 26.4 79 52.8 79 80 C52.93 80 26.86 80 0 80 C0 53.6 0 27.2 0 0 Z " fill="#FBFCFB" transform="translate(0,0)"/>
<path d="M0 0 C7.63795247 4.38384089 13.22196391 9.94471557 16.12890625 18.35546875 C18.13592751 26.90108757 16.99798343 34.37937619 12.6484375 41.90625 C9.91305983 46.07108309 7.04435076 48.50328444 2.75 51 C2.09 50.67 1.43 50.34 0.75 50 C1.34748047 49.38125 1.34748047 49.38125 1.95703125 48.75 C7.83506827 42.34279663 10.41690594 36.35719477 10.09375 27.578125 C8.8807448 18.48058597 4.17015927 11.2888875 -2.953125 5.65234375 C-9.2977174 1.80421053 -17.04140283 2.18772388 -24.25 2 C-17.24436212 -3.55619556 -8.05323507 -3.72071946 0 0 Z " fill="#B9C541" transform="translate(54.25,16)"/>
<path d="M0 0 C4.2772346 2.45333021 8.52657807 5.71289429 10.01953125 10.55859375 C10.17615234 11.4403125 10.17615234 11.4403125 10.3359375 12.33984375 C9.3459375 11.57671875 8.3559375 10.81359375 7.3359375 10.02734375 C0.45235537 5.17159042 -6.22207325 3.20317651 -14.6640625 4.33984375 C-22.88367612 6.51453973 -29.0307205 10.43355783 -33.78125 17.48046875 C-36.0657747 21.61782702 -36.53118411 25.62297826 -36.9140625 30.27734375 C-36.99140625 31.05658203 -37.06875 31.83582031 -37.1484375 32.63867188 C-37.3348444 34.53769215 -37.50152916 36.43863139 -37.6640625 38.33984375 C-39.6640625 37.33984375 -39.6640625 37.33984375 -40.7890625 34.96484375 C-42.6066224 27.43495275 -42.5609566 20.44259218 -38.98046875 13.46875 C-30.42576536 -0.36600771 -15.32849973 -6.79386187 0 0 Z " fill="#123680" transform="translate(55.6640625,2.66015625)"/>
<path d="M0 0 C0.66 0.33 1.32 0.66 2 1 C1.401875 1.70125 0.80375 2.4025 0.1875 3.125 C-4.78829766 9.66461978 -6.67015163 15.82415006 -6 24 C-2.86046554 34.2482213 1.6529749 40.70115831 11 46 C16.48193082 48.621793 22.04800949 48.19063315 28 48 C27 50 27 50 24.6875 51.125 C16.24727391 53.12776551 8.86573314 52.90480214 1.25390625 48.54296875 C-6.62716597 43.14778066 -11.03124819 36.36537074 -13 27 C-13.82782322 20.02457159 -12.46883427 14.1031374 -9 8 C-6.40185394 4.81162922 -3.70836764 1.85418382 0 0 Z " fill="#B9C43F" transform="translate(13,5)"/>
<path d="M0 0 C2 1 2 1 3.1015625 3.171875 C5.21389194 9.8211207 5.01553963 17.49179012 2.3125 23.9375 C-1.95042525 32.06230875 -7.65092065 36.44703031 -15.75 40.3125 C-23.41667449 41.93429653 -30.89222185 41.9602608 -37.9609375 38.3359375 C-43.03613525 35.01080794 -47.36360641 31.00010982 -49 25 C-48.50371094 25.39832031 -48.00742187 25.79664062 -47.49609375 26.20703125 C-39.96716644 32.07873737 -33.66187266 35.09323941 -24 34 C-14.12751421 31.80964142 -7.84559025 26.76838538 -2.25 18.375 C-0.01878694 14.13569518 0.11430517 10.51607584 0.0625 5.75 C0.05347656 4.67234375 0.04445312 3.5946875 0.03515625 2.484375 C0.02355469 1.66453125 0.01195312 0.8446875 0 0 Z " fill="#143881" transform="translate(53,30)"/>
<path d="M0 0 C0.33 0 0.66 0 1 0 C1.33 2.31 1.66 4.62 2 7 C2.66 6.34 3.32 5.68 4 5 C3.67 9.95 3.34 14.9 3 20 C1 19 1 19 -0.125 16.625 C-1.34212183 11.58263815 -2.39898293 4.79796585 0 0 Z " fill="#425C97" transform="translate(15,21)"/>
<path d="M0 0 C2 1 2 1 3.1171875 3.13671875 C4.15384946 6.49898963 4.19595073 9.30043893 4.125 12.8125 C4.10695313 13.97394531 4.08890625 15.13539062 4.0703125 16.33203125 C4.04710937 17.21246094 4.02390625 18.09289062 4 19 C3.67 19 3.34 19 3 19 C2.67 16.69 2.34 14.38 2 12 C1.67 12 1.34 12 1 12 C0.67 8.04 0.34 4.08 0 0 Z " fill="#2D478B" transform="translate(53,30)"/>
<path d="M0 0 C2.625 -0.4375 2.625 -0.4375 6 0 C8.33122122 2.0949488 10.17328621 4.46073827 12 7 C11.67 7.66 11.34 8.32 11 9 C10.13375 8.21625 9.2675 7.4325 8.375 6.625 C5.44943553 4.16613272 2.72463238 2.97549896 -1 2 C-0.67 1.34 -0.34 0.68 0 0 Z " fill="#204086" transform="translate(54,6)"/>
<path d="M0 0 C-1.33332095 3.99996286 -3.4957827 4.83782337 -7 7 C-7.66 6.67 -8.32 6.34 -9 6 C-8.07213211 4.99105628 -7.13231567 3.99309093 -6.1875 3 C-5.66542969 2.443125 -5.14335938 1.88625 -4.60546875 1.3125 C-3 0 -3 0 0 0 Z " fill="#C0CA51" transform="translate(64,60)"/>
<path d="M0 0 C0 3.3 0 6.6 0 10 C-0.66 8.68 -1.32 7.36 -2 6 C-2.66 6.66 -3.32 7.32 -4 8 C-3.74438677 5.6568787 -3.40729228 3.32156597 -3 1 C-1 0 -1 0 0 0 Z " fill="#072F7C" transform="translate(56,41)"/>
<path d="M0 0 C2.31 1.98 4.62 3.96 7 6 C6.34 6.66 5.68 7.32 5 8 C0 2.25 0 2.25 0 0 Z " fill="#2C4A8C" transform="translate(4,55)"/>
</svg>
